<?xml version="1.0" encoding="UTF-8"?>
<svg xmlns="http://www.w3.org/2000/svg" xmlns:xlink="http://www.w3.org/1999/xlink" width="512px" height="330px" viewBox="0 0 512 330" version="1.1">
<g id="surface1">
<path style=" stroke:none;fill-rule:nonzero;fill:rgb(100%,84.705882%,0%);fill-opacity:1;" d="M 120.167969 118.503906 L 61.546875 211.050781 L 178.703125 211.050781 Z M 106.761719 199.984375 L 106.761719 164.699219 L 107.945312 159.828125 L 141.453125 177.46875 L 145.523438 180.871094 L 112.019531 198.511719 Z M 108.460938 157.730469 L 110.074219 151.078125 L 133.996094 171.199219 Z M 104.554688 200.601562 L 97.429688 202.613281 L 104.554688 173.675781 C 104.554688 173.675781 104.554688 200.601562 104.554688 200.601562 Z M 147.3125 182.261719 L 152.824219 186.832031 L 121.6875 195.726562 Z M 111.171875 148.523438 L 113.464844 142.953125 L 140.613281 173.210938 Z M 94.542969 203.15625 L 88.09375 204.160156 L 103.277344 167.484375 Z M 154.78125 188.921875 L 158.855469 193.488281 L 116.519531 199.835938 Z M 114.398438 139.238281 L 116.777344 134.75 L 145.792969 174.214844 Z M 84.113281 205.246094 L 78.6875 205.558594 L 101.679688 162.921875 Z M 161.90625 196.117188 L 164.957031 200.21875 L 112.953125 203.390625 Z M 149.347656 172.746094 L 117.960938 130.03125 L 120.167969 126.550781 Z M 98.445312 160.832031 L 73.585938 207.027344 L 69.175781 207.027344 Z M 112.527344 207.027344 L 168.859375 203.542969 L 171.0625 207.027344 Z M 112.527344 207.027344 "/>
<path style=" stroke:none;fill-rule:nonzero;fill:rgb(24.313725%,22.745098%,22.352941%);fill-opacity:1;" d="M 206.699219 136.84375 C 206.699219 141.257812 203.898438 144.039062 199.40625 144.039062 C 194.914062 144.039062 192.113281 141.257812 192.113281 136.921875 C 192.113281 132.585938 195.085938 129.804688 199.574219 129.804688 C 203.8125 129.882812 206.699219 132.664062 206.699219 136.84375 Z M 194.398438 136.84375 C 194.398438 140.171875 196.347656 142.414062 199.40625 142.414062 C 202.460938 142.414062 204.328125 140.171875 204.328125 136.921875 C 204.328125 133.671875 202.378906 131.429688 199.40625 131.429688 C 196.347656 131.429688 194.398438 133.667969 194.398438 136.84375 Z M 194.398438 136.84375 "/>
<path style=" stroke:none;fill-rule:nonzero;fill:rgb(24.313725%,22.745098%,22.352941%);fill-opacity:1;" d="M 210.089844 136.765625 C 210.089844 135.683594 210.089844 134.597656 210.003906 133.828125 L 211.957031 133.828125 C 211.957031 134.214844 212.042969 134.910156 212.042969 135.453125 C 212.808594 134.214844 214.246094 133.519531 215.859375 133.59375 C 218.660156 133.59375 220.613281 135.683594 220.613281 138.699219 C 220.613281 141.871094 218.660156 144.117188 215.859375 144.117188 C 214.332031 144.117188 212.886719 143.417969 212.125 142.183594 C 212.125 142.570312 212.210938 144.117188 212.210938 144.660156 L 212.210938 147.988281 L 210.175781 147.988281 Z M 212.125 138.855469 C 212.125 140.867188 213.566406 142.570312 215.347656 142.570312 C 217.128906 142.570312 218.398438 140.945312 218.398438 138.855469 C 218.398438 136.609375 217.214844 135.140625 215.347656 135.140625 C 213.480469 135.140625 212.125 136.765625 212.125 138.855469 Z M 212.125 138.855469 "/>
<path style=" stroke:none;fill-rule:nonzero;fill:rgb(24.313725%,22.745098%,22.352941%);fill-opacity:1;" d="M 225.195312 139.238281 C 225.195312 141.019531 226.71875 142.488281 228.671875 142.488281 C 228.753906 142.488281 228.925781 142.488281 229.011719 142.488281 C 230.109375 142.488281 231.21875 142.253906 232.230469 141.710938 L 232.316406 143.414062 C 231.21875 143.800781 230.109375 144.035156 228.925781 144.035156 C 225.277344 144.035156 223.15625 142.023438 223.15625 138.695312 C 223.15625 135.523438 225.277344 133.511719 228.414062 133.511719 C 231.300781 133.511719 233.167969 135.136719 233.167969 138.460938 C 233.167969 138.695312 233.167969 139.007812 233.167969 139.238281 Z M 231.132812 137.847656 C 231.132812 135.914062 229.945312 134.988281 228.332031 134.988281 C 226.714844 134.988281 225.441406 136.066406 225.277344 137.847656 Z M 231.132812 137.847656 "/>
<path style=" stroke:none;fill-rule:nonzero;fill:rgb(24.313725%,22.745098%,22.352941%);fill-opacity:1;" d="M 238.171875 135.375 C 238.9375 134.214844 240.375 133.519531 241.816406 133.519531 C 244.953125 133.519531 245.972656 135.375 245.972656 138.085938 L 245.972656 143.8125 L 243.9375 143.8125 L 243.9375 138.863281 C 243.9375 136.925781 243.769531 135.070312 241.390625 135.070312 C 240.292969 135.070312 239.269531 135.613281 238.761719 136.539062 C 238.335938 137.316406 238.164062 138.164062 238.25 139.015625 L 238.25 143.8125 L 236.214844 143.8125 L 236.214844 136.695312 C 236.214844 135.613281 236.214844 134.527344 236.128906 133.757812 L 238.164062 133.757812 C 238.085938 134.210938 238.171875 134.832031 238.171875 135.375 Z M 238.171875 135.375 "/>
<path style=" stroke:none;fill-rule:nonzero;fill:rgb(24.313725%,22.745098%,22.352941%);fill-opacity:1;" d="M 261.671875 130.496094 C 261.332031 130.417969 260.992188 130.339844 260.660156 130.339844 C 259.304688 130.339844 258.792969 131.039062 258.792969 132.820312 L 258.792969 133.824219 L 261.765625 133.824219 L 261.765625 135.292969 L 258.792969 135.292969 L 258.792969 143.800781 L 256.671875 143.800781 L 256.671875 135.292969 L 254.125 135.292969 L 254.125 133.824219 L 256.757812 133.824219 L 256.757812 132.898438 C 256.757812 130.496094 257.691406 128.871094 260.316406 128.871094 C 260.828125 128.871094 261.332031 128.949219 261.84375 129.027344 Z M 261.671875 130.496094 "/>
<path style=" stroke:none;fill-rule:nonzero;fill:rgb(24.313725%,22.745098%,22.352941%);fill-opacity:1;" d="M 274.566406 138.855469 C 274.566406 141.71875 272.019531 144.039062 268.882812 144.039062 C 265.746094 144.039062 263.199219 141.71875 263.199219 138.855469 C 263.027344 136.074219 265.320312 133.671875 268.371094 133.519531 C 268.542969 133.519531 268.710938 133.519531 268.882812 133.519531 C 272.195312 133.519531 274.566406 135.757812 274.566406 138.855469 Z M 265.40625 138.855469 C 265.40625 141.023438 266.847656 142.492188 268.96875 142.492188 C 271.089844 142.492188 272.445312 141.023438 272.445312 138.855469 C 272.445312 136.6875 271.003906 135.066406 268.882812 135.066406 C 266.761719 135.066406 265.40625 136.609375 265.40625 138.855469 Z M 265.40625 138.855469 "/>
<path style=" stroke:none;fill-rule:nonzero;fill:rgb(24.313725%,22.745098%,22.352941%);fill-opacity:1;" d="M 279.660156 135.453125 C 280.167969 134.292969 281.4375 133.59375 282.710938 133.519531 C 283.050781 133.519531 283.390625 133.519531 283.722656 133.671875 L 283.722656 135.453125 C 283.382812 135.296875 282.957031 135.296875 282.625 135.296875 C 280.757812 135.296875 279.574219 136.765625 279.574219 139.320312 L 279.574219 143.890625 L 277.535156 143.890625 L 277.535156 136.847656 C 277.535156 135.769531 277.535156 134.683594 277.453125 133.910156 L 279.488281 133.910156 C 279.574219 134.367188 279.660156 134.910156 279.660156 135.453125 Z M 279.660156 135.453125 "/>
<path style=" stroke:none;fill-rule:nonzero;fill:rgb(24.313725%,22.745098%,22.352941%);fill-opacity:1;" d="M 294.421875 143.808594 L 292.214844 143.808594 L 292.214844 130.109375 L 294.421875 130.109375 Z M 294.421875 143.808594 "/>
<path style=" stroke:none;fill-rule:nonzero;fill:rgb(24.313725%,22.745098%,22.352941%);fill-opacity:1;" d="M 300.53125 135.375 C 301.296875 134.214844 302.734375 133.519531 304.175781 133.519531 C 307.3125 133.519531 308.332031 135.375 308.332031 138.085938 L 308.332031 143.8125 L 306.296875 143.8125 L 306.296875 138.863281 C 306.296875 136.925781 306.128906 135.070312 303.75 135.070312 C 302.652344 135.070312 301.628906 135.613281 301.121094 136.539062 C 300.695312 137.316406 300.523438 138.164062 300.609375 139.015625 L 300.609375 143.8125 L 298.578125 143.8125 L 298.578125 136.695312 C 298.578125 135.613281 298.578125 134.527344 298.492188 133.757812 L 300.53125 133.757812 C 300.445312 134.210938 300.53125 134.832031 300.53125 135.375 Z M 300.53125 135.375 "/>
<path style=" stroke:none;fill-rule:nonzero;fill:rgb(24.313725%,22.745098%,22.352941%);fill-opacity:1;" d="M 314.101562 135.375 C 314.867188 134.214844 316.308594 133.519531 317.75 133.519531 C 320.882812 133.519531 321.820312 135.375 321.820312 138.085938 L 321.820312 143.8125 L 319.785156 143.8125 L 319.785156 138.863281 C 319.785156 136.925781 319.613281 135.070312 317.238281 135.070312 C 316.136719 135.070312 315.117188 135.613281 314.605469 136.539062 C 314.179688 137.316406 314.011719 138.164062 314.09375 139.015625 L 314.09375 143.8125 L 312.058594 143.8125 L 312.058594 136.695312 C 312.058594 135.613281 312.058594 134.527344 311.972656 133.757812 L 314.011719 133.757812 C 314.015625 134.210938 314.015625 134.832031 314.101562 135.375 Z M 314.101562 135.375 "/>
<path style=" stroke:none;fill-rule:nonzero;fill:rgb(24.313725%,22.745098%,22.352941%);fill-opacity:1;" d="M 336.160156 138.855469 C 336.328125 141.566406 333.953125 143.960938 330.984375 144.039062 C 330.816406 144.039062 330.644531 144.039062 330.476562 144.039062 C 327.425781 144.117188 324.878906 141.949219 324.792969 139.167969 C 324.792969 139.089844 324.792969 138.933594 324.792969 138.855469 C 324.621094 136.074219 326.914062 133.671875 329.964844 133.519531 C 330.136719 133.519531 330.304688 133.519531 330.476562 133.519531 C 333.867188 133.519531 336.160156 135.757812 336.160156 138.855469 Z M 327.085938 138.855469 C 327.085938 141.023438 328.523438 142.492188 330.5625 142.492188 C 332.597656 142.492188 334.039062 141.023438 334.039062 138.855469 C 334.039062 136.6875 332.597656 135.066406 330.476562 135.066406 C 328.355469 135.066406 327.085938 136.609375 327.085938 138.855469 Z M 327.085938 138.855469 "/>
<path style=" stroke:none;fill-rule:nonzero;fill:rgb(24.313725%,22.745098%,22.352941%);fill-opacity:1;" d="M 341.925781 139.9375 C 342.179688 140.558594 342.523438 141.640625 342.691406 142.335938 C 342.863281 141.640625 343.289062 140.480469 343.542969 139.9375 L 345.75 133.824219 L 347.871094 133.824219 L 343.796875 143.882812 L 341.335938 143.882812 L 337.351562 133.824219 L 339.554688 133.824219 Z M 341.925781 139.9375 "/>
<path style=" stroke:none;fill-rule:nonzero;fill:rgb(24.313725%,22.745098%,22.352941%);fill-opacity:1;" d="M 350.324219 134.367188 C 351.425781 133.824219 352.703125 133.511719 353.972656 133.511719 C 357.195312 133.511719 358.386719 135.214844 358.386719 137.535156 C 358.386719 138.851562 358.386719 140.398438 358.386719 140.785156 C 358.386719 141.867188 358.386719 143.109375 358.46875 143.800781 L 356.605469 143.800781 C 356.605469 143.644531 356.605469 143.257812 356.605469 142.949219 C 356.605469 142.636719 356.605469 142.328125 356.605469 142.023438 C 355.839844 143.257812 354.484375 143.957031 352.957031 143.878906 C 350.582031 143.878906 349.140625 142.71875 349.140625 140.863281 C 349.140625 138.773438 351.261719 137.613281 354.910156 137.613281 C 355.335938 137.613281 355.921875 137.613281 356.433594 137.691406 L 356.433594 137.613281 C 356.433594 135.914062 355.5 135.058594 353.632812 135.058594 C 352.445312 135.058594 351.339844 135.445312 350.410156 135.984375 Z M 355.417969 139.011719 C 352.703125 139.011719 351.347656 139.632812 351.347656 140.945312 C 351.347656 141.949219 352.199219 142.492188 353.46875 142.492188 C 354.652344 142.492188 355.675781 141.949219 356.183594 141.023438 C 356.441406 140.402344 356.609375 139.710938 356.527344 139.011719 C 356.265625 139.011719 355.921875 139.011719 355.417969 139.011719 Z M 355.417969 139.011719 "/>
<path style=" stroke:none;fill-rule:nonzero;fill:rgb(24.313725%,22.745098%,22.352941%);fill-opacity:1;" d="M 365.175781 133.824219 L 368.144531 133.824219 L 368.144531 135.292969 L 365.175781 135.292969 L 365.175781 139.703125 C 365.175781 141.328125 365.429688 142.414062 367.039062 142.414062 C 367.464844 142.414062 367.890625 142.335938 368.226562 142.183594 L 368.308594 143.652344 C 367.714844 143.808594 367.125 143.960938 366.53125 143.960938 C 363.726562 143.960938 363.136719 142.414062 363.136719 140.246094 L 363.136719 135.296875 L 360.589844 135.296875 L 360.589844 133.828125 L 363.136719 133.828125 L 363.136719 131.429688 L 365.175781 130.808594 Z M 365.175781 133.824219 "/>
<path style=" stroke:none;fill-rule:nonzero;fill:rgb(24.313725%,22.745098%,22.352941%);fill-opacity:1;" d="M 373.0625 131.964844 L 370.773438 131.964844 L 370.773438 129.875 L 373.0625 129.875 Z M 372.976562 143.808594 L 370.855469 143.808594 L 370.855469 133.746094 L 372.976562 133.746094 Z M 372.976562 143.808594 "/>
<path style=" stroke:none;fill-rule:nonzero;fill:rgb(24.313725%,22.745098%,22.352941%);fill-opacity:1;" d="M 387.402344 138.855469 C 387.570312 141.566406 385.28125 143.882812 382.230469 144.039062 C 382.058594 144.039062 381.886719 144.039062 381.71875 144.039062 C 378.667969 144.117188 376.121094 141.949219 376.035156 139.167969 C 376.035156 139.011719 376.035156 138.933594 376.035156 138.777344 C 375.867188 135.996094 378.15625 133.59375 381.207031 133.441406 C 381.378906 133.441406 381.546875 133.441406 381.71875 133.441406 C 385.023438 133.519531 387.402344 135.757812 387.402344 138.855469 Z M 378.234375 138.855469 C 378.234375 141.023438 379.675781 142.492188 381.710938 142.492188 C 383.75 142.492188 385.1875 141.023438 385.1875 138.855469 C 385.1875 136.6875 383.75 135.066406 381.628906 135.066406 C 379.511719 135.066406 378.234375 136.609375 378.234375 138.855469 Z M 378.234375 138.855469 "/>
<path style=" stroke:none;fill-rule:nonzero;fill:rgb(24.313725%,22.745098%,22.352941%);fill-opacity:1;" d="M 392.488281 135.375 C 393.253906 134.214844 394.695312 133.519531 396.136719 133.519531 C 399.269531 133.519531 400.292969 135.375 400.292969 138.085938 L 400.292969 143.8125 L 398.257812 143.8125 L 398.257812 138.863281 C 398.257812 136.925781 398 135.070312 395.710938 135.070312 C 394.609375 135.070312 393.589844 135.613281 392.992188 136.539062 C 392.566406 137.316406 392.398438 138.164062 392.480469 139.015625 L 392.480469 143.8125 L 390.445312 143.8125 L 390.445312 136.695312 C 390.445312 135.613281 390.445312 134.527344 390.359375 133.757812 L 392.398438 133.757812 C 392.402344 134.210938 392.402344 134.832031 392.488281 135.375 Z M 392.488281 135.375 "/>
<path style=" stroke:none;fill-rule:nonzero;fill:rgb(24.313725%,22.745098%,22.352941%);fill-opacity:1;" d="M 203.394531 157.964844 L 203.394531 182.496094 L 203.648438 182.496094 L 225.023438 157.964844 L 237.835938 157.964844 L 216.121094 182.957031 L 244.199219 211.046875 L 229.777344 211.046875 L 203.394531 184.96875 L 203.394531 211.046875 L 192.113281 211.046875 L 192.113281 157.964844 Z M 203.394531 157.964844 "/>
<path style=" stroke:none;fill-rule:nonzero;fill:rgb(24.313725%,22.745098%,22.352941%);fill-opacity:1;" d="M 259.636719 157.964844 L 294.25 195.03125 L 294.25 157.964844 L 305.28125 157.964844 L 305.28125 211.046875 L 295.613281 211.046875 L 260.828125 173.359375 L 260.828125 211.046875 L 249.796875 211.046875 L 249.796875 157.964844 Z M 259.636719 157.964844 "/>
<path style=" stroke:none;fill-rule:nonzero;fill:rgb(24.313725%,22.745098%,22.352941%);fill-opacity:1;" d="M 329.199219 157.964844 L 329.199219 211.046875 L 317.917969 211.046875 L 317.917969 157.964844 Z M 329.199219 157.964844 "/>
<path style=" stroke:none;fill-rule:nonzero;fill:rgb(24.313725%,22.745098%,22.352941%);fill-opacity:1;" d="M 351.9375 157.964844 L 371.113281 178.859375 L 390.203125 157.964844 L 400.214844 157.964844 L 400.214844 211.046875 L 389.019531 211.046875 L 389.019531 173.746094 L 388.675781 173.746094 L 371.878906 192.472656 L 370.265625 192.472656 L 353.382812 173.746094 L 353.042969 173.746094 L 353.042969 211.046875 L 341.761719 211.046875 L 341.761719 157.964844 Z M 351.9375 157.964844 "/>
<path style=" stroke:none;fill-rule:nonzero;fill:rgb(24.313725%,22.745098%,22.352941%);fill-opacity:1;" d="M 450.433594 157.964844 L 450.433594 166.015625 L 424.050781 166.015625 L 424.050781 179.941406 L 449.335938 179.941406 L 449.335938 187.988281 L 424.050781 187.988281 L 424.050781 203.078125 L 451.03125 203.078125 L 451.03125 211.128906 L 412.769531 211.128906 L 412.769531 157.96875 L 450.433594 157.96875 Z M 450.433594 157.964844 "/>
</g>
</svg>
