<?xml version="1.0" encoding="utf-8"?>
<!-- Generator: Adobe Illustrator 24.3.0, SVG Export Plug-In . SVG Version: 6.00 Build 0)  -->
<svg version="1.0" id="katman_1" xmlns="http://www.w3.org/2000/svg" xmlns:xlink="http://www.w3.org/1999/xlink" x="0px" y="0px"
	 viewBox="0 0 841.89 595.28" style="enable-background:new 0 0 841.89 595.28;" xml:space="preserve">
<style type="text/css">
	.st0{fill:#FFD800;}
	.st1{fill:#3E3A39;}
</style>
<path class="st0" d="M197.46,213.77l-96.45,166.94h192.76L197.46,213.77z M175.4,360.75V297.1l1.95-8.79l55.13,31.82l6.7,6.14
	l-55.13,31.82L175.4,360.75z M178.2,284.53l2.65-12l39.36,36.29L178.2,284.53z M171.77,361.86l-11.72,3.63l11.72-52.2
	C171.77,313.29,171.77,361.86,171.77,361.86z M242.12,328.78l9.07,8.24l-51.23,16.05L242.12,328.78z M182.66,267.92l3.77-10.05
	l44.67,54.58L182.66,267.92z M155.3,366.47l-10.61,1.81l24.98-66.16L155.3,366.47z M254.41,340.79l6.7,8.24l-69.65,11.45
	L254.41,340.79z M187.97,251.17l3.91-8.1l47.74,71.19L187.97,251.17z M138.14,370.24l-8.93,0.56l37.83-76.91L138.14,370.24z
	 M266.13,353.77l5.02,7.4l-85.56,5.72L266.13,353.77z M245.47,311.61l-51.64-77.05l3.63-6.28L245.47,311.61z M161.72,290.12
	l-40.9,83.33h-7.26L161.72,290.12z M184.89,373.45l92.68-6.28l3.63,6.28H184.89z"/>
<path class="st1" d="M339.83,246.85c0,7.96-4.61,12.98-12,12.98s-12-5.02-12-12.84c0-7.82,4.89-12.84,12.28-12.84
	C335.08,234.29,339.83,239.31,339.83,246.85z M319.59,246.85c0,6,3.21,10.05,8.24,10.05s8.1-4.05,8.1-9.91
	c0-5.86-3.21-9.91-8.1-9.91C322.8,237.08,319.59,241.12,319.59,246.85L319.59,246.85z"/>
<path class="st1" d="M345.41,246.71c0-1.95,0-3.91-0.14-5.3h3.21c0,0.7,0.14,1.95,0.14,2.93l0,0c1.26-2.23,3.63-3.49,6.28-3.35
	c4.61,0,7.82,3.77,7.82,9.21c0,5.72-3.21,9.77-7.82,9.77c-2.51,0-4.89-1.26-6.14-3.49l0,0c0,0.7,0.14,3.49,0.14,4.47v6h-3.35
	L345.41,246.71z M348.76,250.48c0,3.63,2.37,6.7,5.3,6.7c2.93,0,5.02-2.93,5.02-6.7c0-4.05-1.95-6.7-5.02-6.7
	S348.76,246.71,348.76,250.48z"/>
<path class="st1" d="M370.26,251.17c0,3.21,2.51,5.86,5.72,5.86c0.14,0,0.42,0,0.56,0c1.81,0,3.63-0.42,5.3-1.4l0.14,3.07
	c-1.81,0.7-3.63,1.12-5.58,1.12c-6,0-9.49-3.63-9.49-9.63c0-5.72,3.49-9.35,8.65-9.35c4.75,0,7.82,2.93,7.82,8.93
	c0,0.42,0,0.98,0,1.4L370.26,251.17z M380.03,248.66c0-3.49-1.95-5.16-4.61-5.16s-4.75,1.95-5.02,5.16H380.03z"/>
<path class="st1" d="M391.61,244.2c1.26-2.09,3.63-3.35,6-3.35c5.16,0,6.84,3.35,6.84,8.24v10.33h-3.35v-8.93
	c0-3.49-0.28-6.84-4.19-6.84c-1.81,0-3.49,0.98-4.33,2.65c-0.7,1.4-0.98,2.93-0.84,4.47v8.65h-3.35v-12.84c0-1.95,0-3.91-0.14-5.3
	h3.35C391.47,242.1,391.61,243.22,391.61,244.2L391.61,244.2z"/>
<path class="st1" d="M430.28,235.4c-0.56-0.14-1.12-0.28-1.67-0.28c-2.23,0-3.07,1.26-3.07,4.47v1.81h4.89v2.65h-4.89v15.35h-3.49
	v-15.35h-4.19v-2.65h4.33v-1.67c0-4.33,1.54-7.26,5.86-7.26c0.84,0,1.67,0.14,2.51,0.28L430.28,235.4z"/>
<path class="st1" d="M451.49,250.48c0,5.16-4.19,9.35-9.35,9.35c-5.16,0-9.35-4.19-9.35-9.35l0,0c-0.28-5.02,3.49-9.35,8.51-9.63
	c0.28,0,0.56,0,0.84,0C447.59,240.85,451.49,244.89,451.49,250.48z M436.42,250.48c0,3.91,2.37,6.56,5.86,6.56s5.72-2.65,5.72-6.56
	c0-3.91-2.37-6.84-5.86-6.84C438.65,243.64,436.42,246.43,436.42,250.48z"/>
<path class="st1" d="M459.87,244.34c0.84-2.09,2.93-3.35,5.02-3.49c0.56,0,1.12,0,1.67,0.28v3.21c-0.56-0.28-1.26-0.28-1.81-0.28
	c-3.07,0-5.02,2.65-5.02,7.26v8.24h-3.35v-12.7c0-1.95,0-3.91-0.14-5.3h3.35C459.73,242.38,459.87,243.36,459.87,244.34
	L459.87,244.34z"/>
<path class="st1" d="M484.16,259.41h-3.63V234.7h3.63V259.41z"/>
<path class="st1" d="M494.21,244.2c1.26-2.09,3.63-3.35,6-3.35c5.16,0,6.84,3.35,6.84,8.24v10.33h-3.35v-8.93
	c0-3.49-0.28-6.84-4.19-6.84c-1.81,0-3.49,0.98-4.33,2.65c-0.7,1.4-0.98,2.93-0.84,4.47v8.65H491v-12.84c0-1.95,0-3.91-0.14-5.3
	h3.35C494.07,242.1,494.21,243.22,494.21,244.2L494.21,244.2z"/>
<path class="st1" d="M516.54,244.2c1.26-2.09,3.63-3.35,6-3.35c5.16,0,6.7,3.35,6.7,8.24v10.33h-3.35v-8.93
	c0-3.49-0.28-6.84-4.19-6.84c-1.81,0-3.49,0.98-4.33,2.65c-0.7,1.4-0.98,2.93-0.84,4.47v8.65h-3.35v-12.84c0-1.95,0-3.91-0.14-5.3
	h3.35C516.4,242.1,516.4,243.22,516.54,244.2L516.54,244.2z"/>
<path class="st1" d="M552.83,250.48c0.28,4.89-3.63,9.21-8.51,9.35c-0.28,0-0.56,0-0.84,0c-5.02,0.14-9.21-3.77-9.35-8.79
	c0-0.14,0-0.42,0-0.56c-0.28-5.02,3.49-9.35,8.51-9.63c0.28,0,0.56,0,0.84,0C549.06,240.85,552.83,244.89,552.83,250.48z
	 M537.9,250.48c0,3.91,2.37,6.56,5.72,6.56s5.72-2.65,5.72-6.56c0-3.91-2.37-6.84-5.86-6.84
	C539.99,243.64,537.9,246.43,537.9,250.48z"/>
<path class="st1" d="M562.32,252.43c0.42,1.12,0.98,3.07,1.26,4.33l0,0c0.28-1.26,0.98-3.35,1.4-4.33l3.63-11.03h3.49l-6.7,18.15
	h-4.05l-6.56-18.15h3.63L562.32,252.43z"/>
<path class="st1" d="M576.14,242.38c1.81-0.98,3.91-1.54,6-1.54c5.3,0,7.26,3.07,7.26,7.26c0,2.37,0,5.16,0,5.86
	c0,1.95,0,4.19,0.14,5.44h-3.07c0-0.28,0-0.98,0-1.54s0-1.12,0-1.67l0,0c-1.26,2.23-3.49,3.49-6,3.35c-3.91,0-6.28-2.09-6.28-5.44
	c0-3.77,3.49-5.86,9.49-5.86c0.7,0,1.67,0,2.51,0.14v-0.14c0-3.07-1.54-4.61-4.61-4.61c-1.95,0-3.77,0.7-5.3,1.67L576.14,242.38z
	 M584.52,250.76c-4.47,0-6.7,1.12-6.7,3.49c0,1.81,1.4,2.79,3.49,2.79c1.95,0,3.63-0.98,4.47-2.65c0.42-1.12,0.7-2.37,0.56-3.63
	C585.91,250.76,585.35,250.76,584.52,250.76L584.52,250.76z"/>
<path class="st1" d="M600.57,241.4h4.89v2.65h-4.89v7.96c0,2.93,0.42,4.89,3.07,4.89c0.7,0,1.4-0.14,1.95-0.42l0.14,2.65
	c-0.98,0.28-1.95,0.56-2.93,0.56c-4.61,0-5.58-2.79-5.58-6.7v-8.93h-4.19v-2.65h4.19v-4.33l3.35-1.12V241.4z"/>
<path class="st1" d="M613.55,238.05h-3.77v-3.77h3.77V238.05z M613.41,259.41h-3.49v-18.15h3.49V259.41z"/>
<path class="st1" d="M637.14,250.48c0.28,4.89-3.49,9.07-8.51,9.35c-0.28,0-0.56,0-0.84,0c-5.02,0.14-9.21-3.77-9.35-8.79
	c0-0.28,0-0.42,0-0.7c-0.28-5.02,3.49-9.35,8.51-9.63c0.28,0,0.56,0,0.84,0C633.23,240.85,637.14,244.89,637.14,250.48z
	 M622.06,250.48c0,3.91,2.37,6.56,5.72,6.56c3.35,0,5.72-2.65,5.72-6.56c0-3.91-2.37-6.84-5.86-6.84
	C624.16,243.64,622.06,246.43,622.06,250.48z"/>
<path class="st1" d="M645.51,244.2c1.26-2.09,3.63-3.35,6-3.35c5.16,0,6.84,3.35,6.84,8.24v10.33H655v-8.93
	c0-3.49-0.42-6.84-4.19-6.84c-1.81,0-3.49,0.98-4.47,2.65c-0.7,1.4-0.98,2.93-0.84,4.47v8.65h-3.35v-12.84c0-1.95,0-3.91-0.14-5.3
	h3.35C645.37,242.1,645.37,243.22,645.51,244.2L645.51,244.2z"/>
<path class="st1" d="M334.39,284.95v44.25h0.42l35.17-44.25h21.08l-35.73,45.08l46.2,50.67H377.8l-43.41-47.04v47.04h-18.56v-95.75
	H334.39z"/>
<path class="st1" d="M426.93,284.95l56.95,66.86v-66.86h18.15v95.75h-15.91l-57.23-67.98v67.98h-18.15v-95.75H426.93z"/>
<path class="st1" d="M541.38,284.95v95.75h-18.56v-95.75H541.38z"/>
<path class="st1" d="M578.79,284.95l31.55,37.69l31.41-37.69h16.47v95.75h-18.42v-67.28h-0.56l-27.64,33.78h-2.65l-27.78-33.78
	h-0.56v67.28h-18.56v-95.75H578.79z"/>
<path class="st1" d="M740.85,284.95v14.52h-43.41v25.12h41.6v14.52h-41.6v27.22h44.39v14.52h-62.95v-95.89H740.85z"/>
</svg>
